<svg width="269" height="73" viewBox="0 0 269 73" fill="none" xmlns="http://www.w3.org/2000/svg">
<rect x="8.47998" y="4.64001" width="259.84" height="48.72" rx="24.36" fill="#EEEEEE"/>
<path d="M74.1337 20.2073H77.2232L82.5948 33.3232H82.7925L88.1641 20.2073H91.2536V37.08H88.8314V24.8703H88.6749L83.6988 37.0553H81.6886L76.7124 24.8621H76.5559V37.08H74.1337V20.2073ZM98.4398 37.3601C97.6379 37.3601 96.9129 37.2118 96.2648 36.9152C95.6167 36.6131 95.1031 36.1765 94.7241 35.6053C94.3506 35.0341 94.1639 34.3338 94.1639 33.5044C94.1639 32.7904 94.3012 32.2027 94.5758 31.7414C94.8505 31.28 95.2212 30.9147 95.6881 30.6456C96.1549 30.3765 96.6767 30.1733 97.2534 30.036C97.8301 29.8986 98.4178 29.7943 99.0165 29.7229C99.7744 29.635 100.39 29.5636 100.862 29.5087C101.334 29.4483 101.678 29.3521 101.892 29.2203C102.106 29.0885 102.213 28.8743 102.213 28.5777V28.52C102.213 27.8005 102.01 27.2431 101.603 26.8476C101.202 26.4521 100.604 26.2544 99.8074 26.2544C98.978 26.2544 98.3244 26.4384 97.8466 26.8064C97.3742 27.1689 97.0474 27.5726 96.8662 28.0175L94.5511 27.4902C94.8257 26.7213 95.2267 26.1006 95.754 25.6283C96.2867 25.1504 96.8991 24.8044 97.5912 24.5902C98.2832 24.3705 99.011 24.2607 99.7744 24.2607C100.28 24.2607 100.815 24.3211 101.381 24.4419C101.952 24.5573 102.485 24.7715 102.979 25.0845C103.479 25.3976 103.888 25.8452 104.207 26.4274C104.525 27.0041 104.685 27.7539 104.685 28.6766V37.08H102.279V35.3499H102.18C102.021 35.6684 101.782 35.9815 101.463 36.2891C101.145 36.5967 100.736 36.8521 100.236 37.0553C99.736 37.2585 99.1373 37.3601 98.4398 37.3601ZM98.9753 35.3828C99.6563 35.3828 100.239 35.2483 100.722 34.9791C101.211 34.71 101.581 34.3585 101.834 33.9246C102.092 33.4852 102.221 33.0156 102.221 32.5158V30.8845C102.133 30.9724 101.963 31.0548 101.71 31.1317C101.463 31.2031 101.18 31.2663 100.862 31.3212C100.543 31.3706 100.233 31.4173 99.931 31.4612C99.6289 31.4997 99.3762 31.5326 99.173 31.5601C98.6952 31.6205 98.2585 31.7221 97.8631 31.8649C97.4731 32.0077 97.16 32.2137 96.9238 32.4828C96.6932 32.7465 96.5778 33.098 96.5778 33.5374C96.5778 34.147 96.803 34.6084 97.2534 34.9215C97.7038 35.229 98.2777 35.3828 98.9753 35.3828ZM107.966 37.08V24.4254H110.429V37.08H107.966ZM109.21 22.4729C108.781 22.4729 108.413 22.3301 108.106 22.0445C107.804 21.7534 107.653 21.4074 107.653 21.0064C107.653 20.6 107.804 20.2539 108.106 19.9683C108.413 19.6772 108.781 19.5317 109.21 19.5317C109.638 19.5317 110.003 19.6772 110.305 19.9683C110.613 20.2539 110.767 20.6 110.767 21.0064C110.767 21.4074 110.613 21.7534 110.305 22.0445C110.003 22.3301 109.638 22.4729 109.21 22.4729ZM116.206 29.5664V37.08H113.743V24.4254H116.108V26.4851H116.264C116.555 25.815 117.011 25.2768 117.632 24.8703C118.258 24.4639 119.046 24.2607 119.996 24.2607C120.858 24.2607 121.614 24.4419 122.262 24.8044C122.91 25.1614 123.412 25.6942 123.769 26.4027C124.126 27.1112 124.305 27.9873 124.305 29.0308V37.08H121.842V29.3274C121.842 28.4102 121.603 27.6934 121.125 27.1771C120.647 26.6554 119.991 26.3945 119.156 26.3945C118.585 26.3945 118.077 26.5181 117.632 26.7652C117.192 27.0124 116.843 27.3749 116.585 27.8527C116.333 28.3251 116.206 28.8963 116.206 29.5664ZM129.874 32.7877L129.858 29.7806H130.286L135.328 24.4254H138.278L132.527 30.522H132.14L129.874 32.7877ZM127.609 37.08V20.2073H130.072V37.08H127.609ZM135.6 37.08L131.069 31.0658L132.766 29.3439L138.624 37.08H135.6ZM144.205 37.3601C143.403 37.3601 142.678 37.2118 142.03 36.9152C141.382 36.6131 140.869 36.1765 140.49 35.6053C140.116 35.0341 139.93 34.3338 139.93 33.5044C139.93 32.7904 140.067 32.2027 140.341 31.7414C140.616 31.28 140.987 30.9147 141.454 30.6456C141.921 30.3765 142.442 30.1733 143.019 30.036C143.596 29.8986 144.183 29.7943 144.782 29.7229C145.54 29.635 146.155 29.5636 146.628 29.5087C147.1 29.4483 147.443 29.3521 147.657 29.2203C147.872 29.0885 147.979 28.8743 147.979 28.5777V28.52C147.979 27.8005 147.775 27.2431 147.369 26.8476C146.968 26.4521 146.369 26.2544 145.573 26.2544C144.744 26.2544 144.09 26.4384 143.612 26.8064C143.14 27.1689 142.813 27.5726 142.632 28.0175L140.317 27.4902C140.591 26.7213 140.992 26.1006 141.52 25.6283C142.052 25.1504 142.665 24.8044 143.357 24.5902C144.049 24.3705 144.777 24.2607 145.54 24.2607C146.045 24.2607 146.581 24.3211 147.147 24.4419C147.718 24.5573 148.251 24.7715 148.745 25.0845C149.245 25.3976 149.654 25.8452 149.972 26.4274C150.291 27.0041 150.45 27.7539 150.45 28.6766V37.08H148.045V35.3499H147.946C147.786 35.6684 147.548 35.9815 147.229 36.2891C146.91 36.5967 146.501 36.8521 146.001 37.0553C145.502 37.2585 144.903 37.3601 144.205 37.3601ZM144.741 35.3828C145.422 35.3828 146.004 35.2483 146.487 34.9791C146.976 34.71 147.347 34.3585 147.6 33.9246C147.858 33.4852 147.987 33.0156 147.987 32.5158V30.8845C147.899 30.9724 147.729 31.0548 147.476 31.1317C147.229 31.2031 146.946 31.2663 146.628 31.3212C146.309 31.3706 145.999 31.4173 145.697 31.4612C145.394 31.4997 145.142 31.5326 144.939 31.5601C144.461 31.6205 144.024 31.7221 143.629 31.8649C143.239 32.0077 142.926 32.2137 142.689 32.4828C142.459 32.7465 142.343 33.098 142.343 33.5374C142.343 34.147 142.569 34.6084 143.019 34.9215C143.469 35.229 144.043 35.3828 144.741 35.3828ZM156.195 29.5664V37.08H153.731V24.4254H156.096V26.4851H156.252C156.543 25.815 156.999 25.2768 157.62 24.8703C158.246 24.4639 159.034 24.2607 159.984 24.2607C160.847 24.2607 161.602 24.4419 162.25 24.8044C162.898 25.1614 163.401 25.6942 163.758 26.4027C164.115 27.1112 164.293 27.9873 164.293 29.0308V37.08H161.83V29.3274C161.83 28.4102 161.591 27.6934 161.113 27.1771C160.635 26.6554 159.979 26.3945 159.144 26.3945C158.573 26.3945 158.065 26.5181 157.62 26.7652C157.181 27.0124 156.832 27.3749 156.574 27.8527C156.321 28.3251 156.195 28.8963 156.195 29.5664ZM185.353 25.5377C185.194 25.0378 184.98 24.5902 184.711 24.1948C184.447 23.7938 184.131 23.4533 183.763 23.1732C183.395 22.8876 182.975 22.6706 182.503 22.5223C182.036 22.374 181.522 22.2999 180.962 22.2999C180.012 22.2999 179.155 22.5443 178.392 23.0331C177.628 23.5219 177.024 24.2387 176.579 25.1834C176.14 26.1226 175.92 27.2733 175.92 28.6354C175.92 30.003 176.142 31.1592 176.587 32.1039C177.032 33.0485 177.642 33.7653 178.416 34.2541C179.191 34.743 180.072 34.9874 181.061 34.9874C181.978 34.9874 182.777 34.8006 183.458 34.4271C184.145 34.0537 184.675 33.5264 185.048 32.8453C185.427 32.1588 185.617 31.3514 185.617 30.4232L186.276 30.5467H181.448V28.4459H188.08V30.3655C188.08 31.7825 187.778 33.0128 187.174 34.0564C186.575 35.0945 185.746 35.8964 184.686 36.4621C183.631 37.0278 182.423 37.3107 181.061 37.3107C179.534 37.3107 178.194 36.9592 177.04 36.2561C175.893 35.5531 174.997 34.5562 174.355 33.2655C173.712 31.9693 173.391 30.4314 173.391 28.6519C173.391 27.3062 173.577 26.0979 173.951 25.0269C174.324 23.9558 174.849 23.0468 175.525 22.2999C176.206 21.5474 177.005 20.9735 177.922 20.578C178.845 20.1771 179.853 19.9766 180.946 19.9766C181.857 19.9766 182.706 20.1111 183.491 20.3803C184.282 20.6494 184.985 21.0311 185.6 21.5254C186.221 22.0198 186.735 22.6074 187.141 23.2885C187.547 23.9641 187.822 24.7138 187.965 25.5377H185.353ZM194.797 37.3601C193.995 37.3601 193.27 37.2118 192.622 36.9152C191.974 36.6131 191.46 36.1765 191.081 35.6053C190.708 35.0341 190.521 34.3338 190.521 33.5044C190.521 32.7904 190.658 32.2027 190.933 31.7414C191.207 31.28 191.578 30.9147 192.045 30.6456C192.512 30.3765 193.034 30.1733 193.61 30.036C194.187 29.8986 194.775 29.7943 195.373 29.7229C196.131 29.635 196.747 29.5636 197.219 29.5087C197.691 29.4483 198.035 29.3521 198.249 29.2203C198.463 29.0885 198.57 28.8743 198.57 28.5777V28.52C198.57 27.8005 198.367 27.2431 197.96 26.8476C197.559 26.4521 196.961 26.2544 196.164 26.2544C195.335 26.2544 194.681 26.4384 194.204 26.8064C193.731 27.1689 193.404 27.5726 193.223 28.0175L190.908 27.4902C191.183 26.7213 191.584 26.1006 192.111 25.6283C192.644 25.1504 193.256 24.8044 193.948 24.5902C194.64 24.3705 195.368 24.2607 196.131 24.2607C196.637 24.2607 197.172 24.3211 197.738 24.4419C198.309 24.5573 198.842 24.7715 199.336 25.0845C199.836 25.3976 200.245 25.8452 200.564 26.4274C200.882 27.0041 201.042 27.7539 201.042 28.6766V37.08H198.636V35.3499H198.537C198.378 35.6684 198.139 35.9815 197.82 36.2891C197.502 36.5967 197.093 36.8521 196.593 37.0553C196.093 37.2585 195.494 37.3601 194.797 37.3601ZM195.332 35.3828C196.013 35.3828 196.596 35.2483 197.079 34.9791C197.568 34.71 197.938 34.3585 198.191 33.9246C198.449 33.4852 198.578 33.0156 198.578 32.5158V30.8845C198.49 30.9724 198.32 31.0548 198.068 31.1317C197.82 31.2031 197.538 31.2663 197.219 31.3212C196.9 31.3706 196.59 31.4173 196.288 31.4612C195.986 31.4997 195.733 31.5326 195.53 31.5601C195.052 31.6205 194.616 31.7221 194.22 31.8649C193.83 32.0077 193.517 32.2137 193.281 32.4828C193.05 32.7465 192.935 33.098 192.935 33.5374C192.935 34.147 193.16 34.6084 193.61 34.9215C194.061 35.229 194.635 35.3828 195.332 35.3828ZM204.323 37.08V24.4254H206.687V26.4851H206.844C207.107 25.7876 207.539 25.2438 208.137 24.8539C208.736 24.4584 209.453 24.2607 210.287 24.2607C211.133 24.2607 211.842 24.4584 212.413 24.8539C212.99 25.2493 213.415 25.7931 213.69 26.4851H213.822C214.124 25.8095 214.605 25.2713 215.264 24.8703C215.923 24.4639 216.708 24.2607 217.62 24.2607C218.768 24.2607 219.704 24.6204 220.429 25.3399C221.16 26.0594 221.525 27.1442 221.525 28.5942V37.08H219.062V28.8249C219.062 27.9681 218.828 27.3474 218.361 26.9629C217.894 26.5785 217.337 26.3862 216.689 26.3862C215.887 26.3862 215.264 26.6334 214.819 27.1277C214.374 27.6165 214.151 28.2454 214.151 29.0144V37.08H211.696V28.6683C211.696 27.9818 211.482 27.4298 211.054 27.0124C210.625 26.5949 210.068 26.3862 209.381 26.3862C208.914 26.3862 208.483 26.5098 208.088 26.757C207.698 26.9986 207.382 27.3364 207.14 27.7703C206.904 28.2042 206.786 28.7068 206.786 29.278V37.08H204.323ZM230.281 37.3354C229.034 37.3354 227.96 37.069 227.059 36.5362C226.164 35.998 225.472 35.2428 224.983 34.2706C224.5 33.293 224.258 32.1478 224.258 30.8351C224.258 29.5389 224.5 28.3965 224.983 27.4078C225.472 26.4192 226.153 25.6475 227.026 25.0928C227.905 24.538 228.932 24.2607 230.108 24.2607C230.822 24.2607 231.514 24.3788 232.184 24.6149C232.854 24.8511 233.455 25.2218 233.988 25.7271C234.521 26.2324 234.941 26.8888 235.248 27.6962C235.556 28.4981 235.71 29.473 235.71 30.6209V31.4942H225.65V29.6487H233.296C233.296 29.0006 233.164 28.4267 232.9 27.9269C232.637 27.4216 232.266 27.0234 231.788 26.7323C231.316 26.4412 230.761 26.2956 230.124 26.2956C229.432 26.2956 228.828 26.4659 228.312 26.8064C227.801 27.1414 227.405 27.5808 227.125 28.1246C226.851 28.6628 226.713 29.2478 226.713 29.8794V31.3212C226.713 32.167 226.862 32.8865 227.158 33.4797C227.46 34.0729 227.88 34.526 228.419 34.8391C228.957 35.1467 229.586 35.3004 230.305 35.3004C230.772 35.3004 231.198 35.2345 231.582 35.1027C231.967 34.9654 232.299 34.7622 232.579 34.4931C232.859 34.2239 233.073 33.8916 233.222 33.4962L235.553 33.9164C235.367 34.6029 235.032 35.2043 234.548 35.7206C234.07 36.2314 233.469 36.6296 232.744 36.9152C232.024 37.1953 231.203 37.3354 230.281 37.3354Z" fill="#363636"/>
<g opacity="0.4" filter="url(#filter0_d_201_3115)">
<path fill-rule="evenodd" clip-rule="evenodd" d="M34 51.3537C46.3444 51.3537 56.3542 41.3463 56.3542 28.9995C56.3542 16.6552 46.3444 6.64535 34 6.64535C21.6557 6.64535 11.6459 16.6552 11.6459 28.9995C11.6459 41.3463 21.6557 51.3537 34 51.3537Z" fill="#F1B03D"/>
<path fill-rule="evenodd" clip-rule="evenodd" d="M34 51.3537C46.3444 51.3537 56.3542 41.3463 56.3542 28.9995C56.3542 16.6552 46.3444 6.64535 34 6.64535C21.6557 6.64535 11.6459 16.6552 11.6459 28.9995C11.6459 41.3463 21.6557 51.3537 34 51.3537Z" stroke="#F1B03D" stroke-width="3.625" stroke-linecap="round" stroke-linejoin="round"/>
</g>
<path d="M30.5145 37.3882L38.939 29L30.5145 20.6118" stroke="#F1B03D" stroke-width="3.625" stroke-linecap="round" stroke-linejoin="round"/>
<defs>
<filter id="filter0_d_201_3115" x="0.166708" y="4.83285" width="67.6667" height="67.6667" filterUnits="userSpaceOnUse" color-interpolation-filters="sRGB">
<feFlood flood-opacity="0" result="BackgroundImageFix"/>
<feColorMatrix in="SourceAlpha" type="matrix" values="0 0 0 0 0 0 0 0 0 0 0 0 0 0 0 0 0 0 127 0" result="hardAlpha"/>
<feOffset dy="9.66667"/>
<feGaussianBlur stdDeviation="4.83333"/>
<feComposite in2="hardAlpha" operator="out"/>
<feColorMatrix type="matrix" values="0 0 0 0 0 0 0 0 0 0 0 0 0 0 0 0 0 0 0.25 0"/>
<feBlend mode="normal" in2="BackgroundImageFix" result="effect1_dropShadow_201_3115"/>
<feBlend mode="normal" in="SourceGraphic" in2="effect1_dropShadow_201_3115" result="shape"/>
</filter>
</defs>
</svg>
