<svg width="154" height="36" viewBox="0 0 154 36" fill="none" xmlns="http://www.w3.org/2000/svg">
<path d="M59.6842 13.6385C59.5392 13.1342 59.3354 12.6887 59.0729 12.3018C58.8104 11.9081 58.4892 11.5765 58.1092 11.3071C57.7362 11.0308 57.3079 10.8201 56.8244 10.675C56.3477 10.5299 55.8193 10.4574 55.239 10.4574C54.1545 10.4574 53.2012 10.7268 52.3791 11.2656C51.564 11.8044 50.9285 12.5885 50.4725 13.6178C50.0166 14.6401 49.7887 15.8905 49.7887 17.3687C49.7887 18.847 50.0132 20.1043 50.4622 21.1405C50.9112 22.1766 51.5467 22.9676 52.3688 23.5133C53.1908 24.0521 54.1614 24.3215 55.2804 24.3215C56.2959 24.3215 57.1628 24.1419 57.8813 23.7827C58.6066 23.4166 59.1592 22.902 59.5392 22.2388C59.926 21.5757 60.1194 20.7916 60.1194 19.8867L61.0313 20.0214H55.5602V16.6434H64.4403V19.3168C64.4403 21.1819 64.0466 22.7845 63.2591 24.1247C62.4716 25.4579 61.387 26.4872 60.0054 27.2125C58.6239 27.9309 57.042 28.2901 55.2597 28.2901C53.2702 28.2901 51.5225 27.8515 50.0166 26.9742C48.5107 26.09 47.3364 24.8362 46.4936 23.2128C45.6577 21.5826 45.2398 19.6484 45.2398 17.4102C45.2398 15.6901 45.4885 14.1566 45.9859 12.8095C46.4901 11.4556 47.1947 10.3089 48.0997 9.36941C49.0046 8.42993 50.0581 7.71497 51.26 7.22451C52.462 6.73405 53.7642 6.48881 55.1665 6.48881C56.3684 6.48881 57.4875 6.66497 58.5237 7.01727C59.5599 7.36266 60.4786 7.85312 61.2799 8.48865C62.0882 9.12418 62.7479 9.88059 63.2591 10.7579C63.7702 11.6283 64.0984 12.5885 64.2434 13.6385H59.6842ZM72.2661 28.3005C71.2506 28.3005 70.3457 28.1243 69.5513 27.772C68.7569 27.4128 68.1283 26.8844 67.6654 26.1867C67.2095 25.4821 66.9815 24.6048 66.9815 23.5548C66.9815 22.6706 67.1439 21.928 67.4686 21.327C67.7932 20.726 68.2353 20.2424 68.7949 19.8763C69.3544 19.5102 69.9899 19.2339 70.7015 19.0474C71.4199 18.8609 72.1728 18.7296 72.9603 18.6536C73.886 18.5569 74.632 18.4671 75.1985 18.3842C75.7649 18.2944 76.176 18.1632 76.4316 17.9905C76.6871 17.8178 76.8149 17.5622 76.8149 17.2237V17.1615C76.8149 16.5053 76.6077 15.9975 76.1932 15.6383C75.7857 15.2791 75.2054 15.0995 74.4524 15.0995C73.658 15.0995 73.026 15.2757 72.5562 15.628C72.0865 15.9734 71.7756 16.4086 71.6237 16.9336L67.5411 16.602C67.7483 15.6349 68.1559 14.799 68.7638 14.0944C69.3717 13.3829 70.1557 12.8372 71.1159 12.4572C72.083 12.0704 73.2021 11.877 74.4732 11.877C75.3574 11.877 76.2036 11.9806 77.0118 12.1878C77.8269 12.3951 78.5488 12.7163 79.1774 13.1515C79.813 13.5867 80.3138 14.1462 80.6799 14.8301C81.046 15.5071 81.2291 16.3187 81.2291 17.2651V28H77.0429V25.7929H76.9186C76.663 26.2903 76.321 26.7289 75.8927 27.1089C75.4644 27.4819 74.9498 27.7755 74.3488 27.9896C73.7478 28.1969 73.0536 28.3005 72.2661 28.3005ZM73.5302 25.2541C74.1796 25.2541 74.7529 25.1263 75.2503 24.8707C75.7477 24.6082 76.138 24.2559 76.4212 23.8138C76.7044 23.3717 76.846 22.8709 76.846 22.3113V20.6224C76.7079 20.7122 76.5179 20.7951 76.2761 20.8711C76.0413 20.9401 75.7753 21.0058 75.4783 21.0679C75.1812 21.1232 74.8842 21.175 74.5871 21.2234C74.2901 21.2648 74.0207 21.3028 73.7789 21.3373C73.2608 21.4133 72.8084 21.5342 72.4215 21.7C72.0347 21.8658 71.7342 22.0903 71.52 22.3735C71.3059 22.6498 71.1988 22.9952 71.1988 23.4097C71.1988 24.0107 71.4164 24.4701 71.8516 24.7878C72.2937 25.0987 72.8533 25.2541 73.5302 25.2541ZM84.6537 28V12.0842H88.8606V14.8923H89.0471C89.3787 13.9597 89.9313 13.224 90.705 12.6852C91.4787 12.1464 92.4043 11.877 93.482 11.877C94.5734 11.877 95.5025 12.1498 96.2693 12.6956C97.0361 13.2344 97.5473 13.9666 97.8029 14.8923H97.9686C98.2933 13.9804 98.8805 13.2516 99.7302 12.7059C100.587 12.1533 101.599 11.877 102.766 11.877C104.251 11.877 105.457 12.3502 106.382 13.2965C107.315 14.236 107.781 15.5692 107.781 17.2962V28H103.378V18.1666C103.378 17.2824 103.143 16.6192 102.673 16.1771C102.203 15.735 101.616 15.514 100.911 15.514C100.11 15.514 99.4849 15.7696 99.0359 16.2808C98.5869 16.785 98.3624 17.4516 98.3624 18.2806V28H94.0829V18.0734C94.0829 17.2928 93.8584 16.6711 93.4094 16.2082C92.9673 15.7454 92.3836 15.514 91.6583 15.514C91.1678 15.514 90.7257 15.6383 90.332 15.887C89.9451 16.1288 89.6377 16.4707 89.4098 16.9128C89.1818 17.348 89.0678 17.8592 89.0678 18.4464V28H84.6537ZM118.521 28.3109C116.884 28.3109 115.475 27.9793 114.294 27.3161C113.119 26.6461 112.214 25.6997 111.579 24.477C110.943 23.2474 110.626 21.7933 110.626 20.1146C110.626 18.4775 110.943 17.0406 111.579 15.8041C112.214 14.5676 113.109 13.6039 114.263 12.9132C115.423 12.2224 116.784 11.877 118.345 11.877C119.395 11.877 120.373 12.0462 121.278 12.3847C122.189 12.7163 122.984 13.2171 123.661 13.8872C124.345 14.5572 124.877 15.4 125.257 16.4155C125.636 17.424 125.826 18.6053 125.826 19.9592V21.1715H112.387V18.436H121.671C121.671 17.8005 121.533 17.2375 121.257 16.747C120.981 16.2566 120.597 15.8732 120.107 15.5969C119.623 15.3137 119.06 15.172 118.418 15.172C117.748 15.172 117.154 15.3275 116.635 15.6383C116.124 15.9423 115.724 16.3533 115.434 16.8714C115.143 17.3826 114.995 17.9525 114.988 18.5811V21.1819C114.988 21.9694 115.133 22.6498 115.423 23.2232C115.72 23.7965 116.138 24.2387 116.677 24.5495C117.216 24.8604 117.855 25.0158 118.594 25.0158C119.084 25.0158 119.533 24.9467 119.941 24.8086C120.348 24.6704 120.697 24.4632 120.987 24.1868C121.278 23.9105 121.499 23.572 121.651 23.1714L125.733 23.4408C125.526 24.4217 125.101 25.2783 124.459 26.0105C123.823 26.7359 123.001 27.3023 121.993 27.7099C120.991 28.1105 119.834 28.3109 118.521 28.3109ZM133.277 6.77895V28H128.79V6.77895H133.277ZM142.75 28.259C141.541 28.259 140.446 27.9482 139.465 27.3265C138.491 26.6979 137.718 25.7757 137.144 24.5599C136.578 23.3372 136.294 21.8382 136.294 20.0628C136.294 18.2391 136.588 16.7229 137.175 15.514C137.762 14.2982 138.543 13.3898 139.517 12.7888C140.498 12.1809 141.572 11.877 142.74 11.877C143.631 11.877 144.373 12.0289 144.967 12.3329C145.568 12.6299 146.052 13.003 146.418 13.452C146.791 13.8941 147.074 14.3293 147.268 14.7576H147.402V6.77895H151.806V28H147.454V25.451H147.268C147.06 25.8931 146.767 26.3317 146.387 26.7669C146.014 27.1952 145.527 27.551 144.926 27.8342C144.332 28.1174 143.607 28.259 142.75 28.259ZM144.149 24.7464C144.86 24.7464 145.461 24.553 145.952 24.1661C146.449 23.7724 146.829 23.2232 147.092 22.5186C147.361 21.814 147.496 20.9885 147.496 20.0421C147.496 19.0957 147.364 18.2737 147.102 17.576C146.839 16.8783 146.459 16.3395 145.962 15.9595C145.465 15.5796 144.86 15.3896 144.149 15.3896C143.423 15.3896 142.812 15.5865 142.315 15.9803C141.817 16.374 141.441 16.9197 141.185 17.6174C140.93 18.3151 140.802 19.1234 140.802 20.0421C140.802 20.9678 140.93 21.7863 141.185 22.4979C141.448 23.2025 141.824 23.7551 142.315 24.1558C142.812 24.5495 143.423 24.7464 144.149 24.7464Z" fill="white"/>
<circle cx="17.8316" cy="17.8316" r="10.1046" fill="white"/>
<mask id="path-3-inside-1_201_2742" fill="white">
<path d="M35.6632 17.8316C35.6632 21.3583 34.6174 24.8059 32.658 27.7383C30.6986 30.6707 27.9137 32.9562 24.6554 34.3058C21.3971 35.6554 17.8118 36.0086 14.3528 35.3205C10.8938 34.6325 7.71654 32.9342 5.22275 30.4404C2.72895 27.9466 1.03066 24.7693 0.342628 21.3103C-0.345407 17.8514 0.00771928 14.266 1.35735 11.0077C2.70698 7.74943 4.9925 4.96452 7.92489 3.00516C10.8573 1.0458 14.3048 -1.72374e-06 17.8316 0L17.8316 17.8316H35.6632Z"/>
</mask>
<path d="M35.6632 17.8316C35.6632 21.3583 34.6174 24.8059 32.658 27.7383C30.6986 30.6707 27.9137 32.9562 24.6554 34.3058C21.3971 35.6554 17.8118 36.0086 14.3528 35.3205C10.8938 34.6325 7.71654 32.9342 5.22275 30.4404C2.72895 27.9466 1.03066 24.7693 0.342628 21.3103C-0.345407 17.8514 0.00771928 14.266 1.35735 11.0077C2.70698 7.74943 4.9925 4.96452 7.92489 3.00516C10.8573 1.0458 14.3048 -1.72374e-06 17.8316 0L17.8316 17.8316H35.6632Z" stroke="white" stroke-width="8.3214" mask="url(#path-3-inside-1_201_2742)"/>
</svg>
